# xmcd
#
# Track frame offsets: 
#        150
#        17305
#        39477
#
# Disc length: 775 seconds
#
# Revision: 6
# Processed by: cddbd v1.5.2PL0 Copyright (c) Steve Scherf et al.
# Submitted via: ExactAudioCopy v0.95b3
#
DISCID=14030503
DTITLE=Lara Fabian - I Will Love Again (Single-CD)
DYEAR=2000
DGENRE=Pop
TTITLE0=I Will Love Again
TTITLE1=I Will Love Again (Ballad Reprise)
TTITLE2=You Are My Heart
EXTD=
EXTT0=
EXTT1=
EXTT2=
PLAYORDER=
